<svg xmlns="http://www.w3.org/2000/svg" width="83" height="13" viewBox="0 0 83 13">
    <g fill="none" fill-rule="nonzero">
        <path fill="#61BBED" d="M10.137.183L4.57 5.647l5.806 6.946v.096H7.313L2.37 6.532v6.157H0V.088h2.36v5.335L7.107.088h3.03zM24.277.088V7.32c0 3.733-2.289 5.647-5.463 5.647-3.03 0-5.615-1.842-5.615-5.647V.088h2.353V7.32c0 2.273 1.3 3.486 3.27 3.486s3.095-1.316 3.095-3.486V.088h2.36zM34.773 12.817h-2.48L27.02.087h2.68l3.82 9.866L37.357.088h2.68z"/>
        <path fill="#0A2745" d="M75.113.088h2.48l5.272 12.729h-2.68l-3.82-9.874-3.836 9.866h-2.68zM52.319 12.697h-9.427V.087h9.427v2.361h-7.074v2.943h6.835v2.242h-6.835v2.83h7.074v2.234zM62.567 8.374c2.441-.494 3.254-2.273 3.254-4.035 0-2.226-1.595-4.243-4.633-4.26-1.46 0-2.927-.007-4.387-.015V2.32h4.402c1.532 0 2.21 1.029 2.21 2.066 0 1.028-.662 2.065-2.21 2.065h-3.23l1.859 2.185 3.748 4.3h2.887v-.168l-3.9-4.395z"/>
        <path fill="#61BBED" d="M2.313 5.447L7.114.112l2.959.071-7.76 8.367z"/>
    </g>
</svg>
